<?xml version="1.0" encoding="UTF-8"?>
<svg version="1.1" viewBox="0 0 2048 2048" width="640" height="640" xmlns="http://www.w3.org/2000/svg">
<path transform="translate(0)" d="m0 0h2048v2048h-2048z" fill="#FEFEFE"/>
<path transform="translate(769,664)" d="m0 0h10l20 2 19 5 14 7 10 8 7 8 6 11 4 12 1 6v17l-4 20-6 16-9 17-10 14-13 15-15 15-13 12-20 15-20 13-21 12-25 13-31 13-28 10-35 10-27 6-32 5-37 3h-8l-2 10-5 24-3 25v20l3 20 4 14 8 16 11 12 9 6 10 4 12 2h21l17-3 15-5 15-7 18-10 17-12 15-13 10-9 13-13 7-8 12-14 15-20 14-20 16-28 9-12 8-8 11-7 12-5 6-1h13l12 4 6 5 1 3-3 3-10 6-11 11-7 10-8 14-9 19-13 32-20 52-8 22-1 2 20-12 19-13 14-11 11-9 15-14 15-15 9-11 12-16 8-16 16-34 6-12 3-3 6-2 30-4 10-2h8l-1 8-13 29-15 32-15 33-18 40-9 23-6 18-2 12v10l3 10 5 4 9 1 10-3 11-6 13-11 9-9 9-11 12-16 16-24 12-20 10-18 14-29 15-33 13-27 4-5 5-2 36-5 12-2 1 1-1 9-19 41-14 30-16 35-16 36-7 18-6 20-1 5v17l3 6 5 3h8l12-5 10-8 14-13 9-11 10-12 12-16 12-17 11-16 18-27 16-25 13-20 13-22 4-7 2-16 5-13 7-11 6-7 13-9 10-4 5-1h13l9 3 5 4 3 7-2 10-6 9-11 10-8 7-3 4-2 7v14l4 17 8 21 9 23 6 19 3 13h4l24-12 13-9 13-11 13-13 10-14 13-27 11-24 14-30 17-36 6-13v-3l-65-18-40-10-35-7-29-4-21-2h-36l-25 3-23 5-15 5-19 9-10 7-10 9-8 10-6 9-4-1-2-8 1-12 4-12 5-9 8-10 10-10 13-9 16-8 15-5 25-5 10-1h42l33 4 26 5 33 8 44 13 54 17 18 6h2l13-27 13-28 6-11 4-4 14-3 20-3 20-4 1 5-7 16-12 26-8 16-14 31 25 5 32 5 19 2h36l24-3 21-5 16-6 17-9 10-8 10-9h3l1 2v8l-6 12-9 10-14 10-17 8-18 6-19 4-18 2h-39l-30-3-33-6-17-4h-4l-8 16-8 18-8 16-9 20-14 29-15 33-14 30-14 32-10 27-5 19-1 6v13l3 8 6 3h7l11-4 11-7 10-9 12-12 9-11 12-15 13-18 8-12 10-16 14-29 14-21 9-11 9-10 8-8 11-9 13-9 14-8 15-6 18-4 24-4h15l13 4 9 6 7 7 8 16 3 12 1 16-2 19-5 23-8 24-7 16-2 4 21-5 16-7 13-9 14-13 9-11 12-17 6-9 4-1 5 7 1 9-6 11-10 13-12 14-12 11-14 10-16 8-16 5-13 2-12 1-8 11-7 11-13 16-9 10-14 14-15 11-14 8-16 6-9 2-9 1h-9l-14-2-13-5-10-6-8-8-7-11-5-12-3-13-1-27-13 17-9 11-9 10-7 8-10 10-17 13-16 9-13 4-7 1-16-1-10-3-11-8-6-9-4-10-2-8v-22l3-17 6-20 10-27 3-7-11 8-19 11-18 8-3 1-1 17-4 20-6 15-7 12-9 11-7 7-13 9-16 8-13 4-21 3-18-1-12-3-10-5-9-8-5-8-3-10v-13l3-10 6-9 7-7 15-10 20-9 30-10 16-4-5-32-11-48-3-15-15 23-15 24-27 41-12 17-13 18-9 12-9 11-10 11-7 8-9 9-11 9-14 9-11 5-15 3h-8l-11-2-10-5-9-9-6-12-3-14v-14l2-13-1 1-9 12-9 11-12 13-12 11-11 8-16 8-13 4-14 1-13-2-10-4-10-8-6-10-4-11-1-5v-21l5-25 7-21 7-17-17 17-11 9-12 9-19 13-15 9-21 12-6 4-12 30-13 30-20 40-14 24-14 22-8 11-10 14-11 13-9 11-25 25-11 9-14 10-18 11-18 8-15 5-14 3-16 1-18-2-12-4-11-6-11-10-6-10-4-11-1-6v-14l3-16 5-13 9-17 8-11 11-13 7-8 7-7 8-7 13-11 18-13 20-13 24-14 28-15 21-10 16-8 34-16 16-7 15-34 16-37 8-19-14 15-7 8-17 17-11 9-8 7-16 12-15 9-16 8-17 7-21 6-22 3h-19l-21-3-16-5-17-9-13-10-7-7-9-13-8-16-5-15-4-21-1-11v-19l3-28 5-25 1-6-26-6-16-5-15-6-21-11-12-9-12-11-8-10-8-14-6-18-2-9v-23l3-16 6-16 9-15 11-13 11-10 15-10 16-8 19-6 21-4 21-1 17 2 16 5 6 4v3l-10 1-27 1-17 3-18 6-14 7-12 9-11 10-10 14-7 15-4 16v26l4 15 8 16 8 10 10 10 15 10 17 8 25 8 5 1 10-25 11-23 14-24 9-14 14-20 11-14 13-15 9-10 23-23 8-7 13-11 20-15 22-14 25-14 17-8 24-9 24-7 26-5z" fill="#423126"/>
<path transform="translate(758,688)" d="m0 0h31l15 4 10 6 8 8 6 12 2 15-3 19-5 15-10 19-11 15-12 14-13 13-11 9-12 10-24 16-20 12-21 11-23 10-26 10-30 9-24 6-29 5-26 3h-17l3-9 10-24 9-19 14-24 9-14 11-16 11-14 13-16 11-12 2-3h2l2-4 9-9 8-7 13-12 13-10 15-11 20-12 19-10 24-9 20-5z" fill="#FEFEFE"/>
<path transform="translate(666,1147)" d="m0 0 2 1-20 40-13 23-13 22-11 17-10 14-9 12-11 14-12 14-17 17-11 9-14 10-10 6-12 5-15 3h-8l-12-3-6-4-7-8-3-10v-11l3-13 8-16 9-14 11-13 21-21 14-11 15-11 15-10 20-12 25-14 27-14 34-17z" fill="#FEFEFE"/>
<path transform="translate(1543,969)" d="m0 0 1 3-2 7-1 9v18l3 16 5 12 6 10 9 10 8 7 13 8 11 4-1 4-11 16-13 15-10 10-14 10-11 5-8 2h-16l-8-3-7-7-5-11-2-9v-21l3-18 6-20 8-20 8-16 8-14 8-12 11-13z" fill="#FEFEFE"/>
<path transform="translate(1602,938)" d="m0 0h12l6 3 6 7 3 7 1 5v27l-4 21-9 27-9 20-6-1-11-7-9-9-7-12-4-13-1-5v-22l3-14 5-13 7-10 9-8z" fill="#FEFEFE"/>
<path transform="translate(1198,1082)" d="m0 0h2l-1 10-6 20-8 15-9 10-7 6-12 5h-13l-10-4-5-6-2-6v-9l4-9 5-5 7-6 16-8 19-7z" fill="#FEFEFE"/>
<path transform="translate(1545,1256)" d="m0 0h15l7 4 6 7 2 5v12l-4 8-6 5-8 3h-10l-8-3-5-4-4-7-1-4v-9l5-10 8-6z" fill="#423126"/>
<path transform="translate(942,1256)" d="m0 0h22l9 3 7 6 3 7v12l-4 8-5 4-7 3-11 1h-12l-3-2v-41z" fill="#423126"/>
<path transform="translate(846,1256)" d="m0 0h13l7 3 7 8 2 5v12l-4 8-6 5-8 3h-10l-9-4-5-5-3-6-1-10 3-9 5-6 5-3z" fill="#423126"/>
<path transform="translate(779,1256)" d="m0 0h22l9 3 6 5 4 9v10l-5 10-8 5-4 1h-24l-1-1v-41z" fill="#423126"/>
<path transform="translate(1482,1256)" d="m0 0h25l7 3 3 4 1 8-3 6 4 5 1 9-3 5-6 3-26 1-3-1z" fill="#423126"/>
<path transform="translate(1588,1256)" d="m0 0h21l9 3 4 5 1 2v11l-4 6-3 2 2 4 6 9-1 2-7-1-4-4-4-6v-2l-12-1v13l-1 1-7-1-1-1v-41z" fill="#423126"/>
<path transform="translate(889,1255)" d="m0 0 5 1 5 5 13 16 5 6v-26l1-1h7l1 1v43l-8-1-9-11-11-14-1-3h-2l1 6v22l-7 1-2-1v-42z" fill="#423126"/>
<path transform="translate(1062,1256)" d="m0 0h6l6 5 15 20 1 3h2v-28h8v44h-6l-10-11-7-9-6-7v26l-8 1-1-1z" fill="#423126"/>
<path transform="translate(1129,1256)" d="m0 0h8l6 12 13 29v3l-8-1-3-4-3-5-20 1-4 8-2 1h-6l1-5 9-21 7-16z" fill="#423126"/>
<path transform="translate(1445,1256)" d="m0 0h7l5 8 12 27 2 5v4l-8-1-3-9h-22l-2 6-3 4-7-1 3-9 8-18z" fill="#423126"/>
<path transform="translate(995,1256)" d="m0 0h32v7h-23v11h20v7h-20v11h23l1 1v6l-11 1h-21l-1-1z" fill="#423126"/>
<path transform="translate(1214,1256)" d="m0 0h32v7h-23v11h21v6l-4 1-17 1-1 10h24l1 1v6l-19 1h-13l-1-1z" fill="#423126"/>
<path transform="translate(1281,1256)" d="m0 0h31v7l-22 1-1 10h21v6l-1 1h-20v11h24v7l-31 1-1-1z" fill="#423126"/>
<path transform="translate(1396,1256)" d="m0 0h14l7 3 1 3-2 3-6-1h-12l-3 2-1 5 20 6 5 5 1 7-3 6-6 4-3 1h-11l-9-3-2-2 1-6 5 1 5 2h11l3-2v-5l-9-3-10-3-5-5-1-8 3-6z" fill="#423126"/>
<path transform="translate(1178,1256)" d="m0 0h14l10 5-1 5-4 1-7-3h-8l-6 3-4 6v9l4 7 6 3h8l8-4 4 2-1 5-7 4-3 1h-11l-8-3-5-5-4-6-1-4v-7l3-9 5-6z" fill="#423126"/>
<path transform="translate(848,1263)" d="m0 0h10l6 4 3 5v11l-4 6-4 3-3 1h-8l-6-4-4-5-1-7 2-7 5-5z" fill="#FEFEFE"/>
<path transform="translate(1549,1263)" d="m0 0h8l5 3 4 4 1 3v8l-4 8-4 3-4 1h-7l-6-4-4-5-1-9 3-6 6-5z" fill="#FEFEFE"/>
<path transform="translate(787,1263)" d="m0 0h13l7 3 4 4 1 3v9l-5 8-4 2h-17v-28z" fill="#FEFEFE"/>
<path transform="translate(950,1263)" d="m0 0h13l7 3 4 4 1 3v9l-4 7-6 3h-15l-1-2v-15z" fill="#FEFEFE"/>
<path transform="translate(1326,1256)" d="m0 0h8v36h22l1 6-1 1-16 1h-13l-1-1z" fill="#423126"/>
<path transform="translate(1596,1263)" d="m0 0 16 1 3 3 1 5-3 5-3 2-13 1-1-1z" fill="#FEFEFE"/>
<path transform="translate(1490,1281)" d="m0 0h19l3 4v5l-2 2h-20z" fill="#FEFEFE"/>
<path transform="translate(1490,1263)" d="m0 0h16l3 1 1 7-1 2-3 1h-16z" fill="#FEFEFE"/>
<path transform="translate(1658,1275)" d="m0 0h6l4 4v6l-5 4-6-1-3-4v-5z" fill="#423126"/>
<path transform="translate(736,1275)" d="m0 0 7 1 2 3v6l-4 4-7-1-3-5 1-5z" fill="#423126"/>
<path transform="translate(1448,1264)" d="m0 0 2 1 5 13 1 5h-15l3-9z" fill="#FEFEFE"/>
<path transform="translate(1132,1265)" d="m0 0 3 3 5 14-1 1h-14z" fill="#FEFEFE"/>
</svg>
