<?xml version="1.0" encoding="UTF-8"?>
<svg version="1.1" viewBox="0 0 2048 2048" width="640" height="640" xmlns="http://www.w3.org/2000/svg">
<path transform="translate(753,665)" d="m0 0h37l18 3 12 4 10 5 12 9 7 8 7 14 3 12 1 7v9l-3 19-6 18-8 16-8 12-13 16-12 13-9 9-11 9-15 12-24 16-21 12-27 14-31 13-28 10-36 10-28 6-33 5-40 3-4 13-5 24-2 14v35l4 20 6 15 7 11 8 9 10 6 9 4 9 2 10 1h10l20-3 23-8 21-11 15-10 14-11 14-12 21-21 7-8 10-12 10-13 13-18 8-13 14-24 11-14 8-7 12-7 10-3 12-1 11 2 8 4 4 4-1 4-9 5-12 11-9 13-10 18-16 37-20 52-11 30-2 4 20-12 19-13 13-10 13-11 10-9 22-22 9-11 10-13 12-24 10-23 8-15 4-4 6-2 31-4 10-2h6l-1 7-13 29-15 32-11 24-13 29-14 32-9 25-4 20 1 10 4 9 6 3h10l12-5 10-7 10-9 10-10 11-14 12-16 13-20 12-20 13-24 9-19 15-33 15-31 6-5 11-2 24-3 9-2h7l-1 8-15 32-11 24-19 41-12 27-13 31-8 24-2 12v8l3 9 3 3 2 1h11l12-6 13-11 12-12 9-11 13-16 10-14 14-20 13-19 22-34 13-20 17-28 3-5 5-25 8-15 11-12 11-7 11-4 12-1 11 2 6 4 3 6v8l-5 10-9 9-11 9-5 7-2 9 1 14 4 15 12 31 9 25 4 17v4l13-5 18-10 10-7 11-9 10-9 7-8 8-11 8-16 15-32 13-28 19-40 8-18-3-2-62-17-44-11-35-7-30-4-25-2h-24l-27 3-23 5-18 6-17 8-13 9-6 5-9 11-8 11-3-2-1-4v-13l4-14 6-10 9-11 7-7 14-10 19-9 21-6 25-4h42l39 5 34 7 34 9 48 15 47 15 10 3 3-9 16-33 10-22 5-6 9-3 27-4 14-3h6l-1 6-7 16-8 16-16 34-9 21 18 4 28 5 29 3h38l19-2 23-5 21-8 13-7 9-7 11-10 4-1 1 2v7l-4 10-9 10-9 8-13 8-20 8-25 6-29 3h-23l-34-3-24-4-32-7h-2l-14 29-12 26-8 18-8 16-14 30-16 35-11 24-12 29-9 27-3 18 1 10 3 7 5 2h10l12-5 11-8 12-11 9-10 11-13 12-16 13-18 11-17 16-32 11-18 11-14 12-14 12-11 13-10 15-9 18-8 16-4 31-5h10l12 3 10 5 8 8 6 10 4 11 2 11v24l-4 22-7 24-6 15-6 13 12-1 13-4 16-8 13-10 13-13 13-17 10-15 2-2 4 1 4 5 1 9-8 13-10 13-9 10-10 10-13 10-14 8-13 5-18 4-17 2-7 11-10 14-11 14-15 16-10 9-12 9-17 9-15 5-12 2h-19l-14-3-14-7-9-8-8-11-5-12-3-12-1-8v-23l-5 5-4 6-11 14-13 15-11 12-8 7-13 10-14 8-13 5-5 1h-20l-10-3-8-5-7-7-6-12-3-14v-15l3-19 4-15 8-23 8-18-18 11-14 8-15 7-6 3-1 20-3 15-5 13-7 13-11 14-10 9-13 8-13 6-14 4-13 2h-22l-16-4-12-7-6-7-6-12-1-5v-11l3-10 6-9 5-5 8-7 14-8 19-8 41-13v-10l-4-24-12-53-1-9h-2l-2 4-11 18-32 50-15 22-10 14-12 17-14 18-9 10-8 10h-2l-2 4-13 12-15 11-14 7-11 3h-20l-11-4-6-4-7-8-6-12-2-8-1-14 2-18-4 5-10 12-9 11-17 17-13 10-15 8-12 4-5 1h-20l-13-4-8-6-8-9-5-12-2-14 1-20 5-23 7-19 6-14-1-1-3 1-1 3-8 7-7 7-14 11-15 11-17 11-35 20-17 42-15 33-14 27-11 19-12 19-13 19-9 12-11 14-11 12-7 8-11 11-8 7-15 12-15 10-21 11-24 8-9 2-9 1h-18l-13-2-13-5-11-7-7-7-6-10-4-11-1-8v-10l2-14 6-17 8-15 10-14 11-13 9-10 12-11 11-9 16-12 26-17 26-15 33-17 28-14 26-12 24-11 11-24 26-60 3-7-5 4-9 11-8 8-1 2h-2l-1 3h-2l-1 3-8 7-13 12-14 11-17 12-22 12-15 6-15 5-20 4-6 1h-32l-21-4-19-8-11-7-13-11-10-13-10-19-5-16-4-22v-38l4-28 5-22-9-1-28-7-25-10-18-10-12-9-10-9-10-13-6-10-5-13-4-18v-21l3-15 5-14 8-15 10-13 8-8 16-12 17-9 19-7 21-4 8-1h26l17 3 9 4 4 4v2l-32 1-16 2-18 5-19 9-14 10-13 13-9 14-5 11-3 9-2 12v19l4 17 4 9 7 12 11 12 13 10 16 9 18 7 17 5h3l12-29 8-16 12-22 11-17 11-16 12-16 12-14 9-11 28-28 11-9 13-11 15-11 20-13 21-12 16-8 21-9 24-8 26-6zm9 22-18 3-18 5-24 10-24 13-12 8-16 12-16 13-15 14-20 20-9 11-11 13-12 16-14 21-12 20-12 23-8 17-8 21v3l21-1 31-4 34-7 28-8 29-10 23-10 25-12 16-9 19-12 19-14 13-11 12-11 11-11 11-14 10-15 8-16 5-16 2-14-1-14-5-13-9-10-10-6-13-4-7-1zm841 250-9 4-8 6-7 10-5 11-4 16-1 16 2 15 4 12 6 10 8 9 11 7 5 3 3-1 6-12 6-15 6-19 4-20 1-9v-14l-2-12-5-10-8-6-4-1zm-61 33-10 12-10 15-9 16-10 21-7 20-5 19-2 20 1 15 3 10 6 10 9 6 7 2h10l15-4 14-8 10-9 8-7 12-14 13-19v-2l-15-6-12-8-10-9-8-11-6-12-4-17v-26l2-14zm-346 112-25 8-15 6-12 6-9 7-5 6-3 6-1 9 3 9 8 7 10 3h7l12-4 11-8 9-11 8-16 5-16 2-12zm-530 65-41 20-24 12-23 13-21 12-24 16-11 8-16 13-13 12-9 9-9 11-9 13-9 17-3 11v19l5 10 7 6 9 4 5 1h14l12-3 17-8 17-12 13-11 22-22 9-11 12-15 14-20 11-17 12-20 15-27 15-29 5-9v-3z" fill="#504138"/>
<path transform="translate(1482,1256)" d="m0 0 28 1 5 3 2 4v8l-2 3 1 4 3 4 1 6-3 6-4 3-5 1h-25l-1-1zm8 7-1 1v8l1 2h16l3-2 1-5-3-4zm0 18-1 9 2 3h17l4-4-1-6-2-2z" fill="#504138"/>
<path transform="translate(1063,1256)" d="m0 0 7 2 10 11 9 12 2 3 1-27 7-1 1 1v42h-6l-5-5-12-14-6-8-1 27h-7l-1-1v-41z" fill="#504138"/>
<path transform="translate(888,1256)" d="m0 0 7 1 8 9 11 14 4 4v-27l1-1h5l1 1 1 41-1 1-7-1-9-10-10-13-3-4-1 28h-7l-1-1v-41z" fill="#504138"/>
<path transform="translate(1588,1256)" d="m0 0h20l8 2 6 5 1 3v11l-7 8 5 9 3 5h-8l-9-11-2-1-9-1v12l-1 1h-7l-1-2v-40zm9 7-2 5v8l1 4h12l5-3 3-5-3-7-4-2z" fill="#504138"/>
<path transform="translate(942,1256)" d="m0 0 26 1 8 4 6 9 1 11-3 9-8 7-9 2h-21l-1-3v-39zm7 7v28l3 2h10l8-3 4-5 1-2v-9l-3-6-5-4-4-1z" fill="#504138"/>
<path transform="translate(1546,1256)" d="m0 0h12l8 3 7 8 2 7v8l-3 8-5 5-4 3-3 1h-16l-6-3-7-8-2-7v-7l3-8 5-6zm1 7-6 4-4 8 1 9 4 6 5 3h10l8-6 2-4v-10l-3-5-4-4-3-1z" fill="#504138"/>
<path transform="translate(846,1256)" d="m0 0h12l8 3 7 8 2 5v12l-4 7-8 7-3 1h-16l-6-3-6-7-3-9 1-10 6-9zm1 7-6 4-3 5v12l4 6 6 3h9l6-4 3-3 1-3v-10l-4-7-5-3z" fill="#504138"/>
<path transform="translate(778,1257)" d="m0 0h26l7 3 7 8 1 2v15l-4 7-5 4-4 2-7 1h-20l-1-1zm8 6v29l2 1h11l6-2 5-4 2-4v-10l-3-5-5-4-4-1z" fill="#504138"/>
<path transform="translate(996,1256)" d="m0 0 30 1v6h-23v11h21v6l-1 1h-19l-1 12h24l1 5-1 1h-31l-1-1v-41z" fill="#504138"/>
<path transform="translate(1214,1257)" d="m0 0h31v6h-23v11h21v6l-1 1h-19v11l23 1 1 5-1 1h-31l-1-2z" fill="#504138"/>
<path transform="translate(1281,1257)" d="m0 0h31v5l-1 1h-22v11h20v7h-20v12h23l1 1v5h-32z" fill="#504138"/>
<path transform="translate(1446,1256)" d="m0 0h6l3 4 14 31 2 5v3h-7l-4-7v-2l-22-1-3 9-2 1h-6l1-5 8-20 8-16zm2 9-4 8-3 7v3h15l-3-10-4-8z" fill="#504138"/>
<path transform="translate(1130,1256)" d="m0 0h6l5 8 13 29 1 6h-6l-3-3-3-6h-21l-4 8-1 1h-6l1-6 13-30 4-6zm2 9-4 9-3 9h15l-1-5-5-12z" fill="#504138"/>
<path transform="translate(1397,1256)" d="m0 0h13l7 3v5l-16-1-6 2 1 6 8 3 11 4 4 4 1 7-4 7-6 3h-16l-7-3-1-5 1-2 10 3h12l1-1v-6l-3-2-12-3-6-4-3-5 1-8 7-6z" fill="#504138"/>
<path transform="translate(1179,1256)" d="m0 0h13l8 4 1 1v5l-4 1-8-3h-9l-5 3-3 5v11l3 4v2l4 2 3 1h9l7-4 3 1 1 3-4 5-4 2h-17l-6-3-6-7-3-9 1-10 4-6 7-6z" fill="#504138"/>
<path transform="translate(1328,1256)" d="m0 0h6l1 36 21 1 1 5-1 1h-29l-1-1v-41z" fill="#504138"/>
<path transform="translate(1659,1275)" d="m0 0h5l4 5-1 6-4 3-6-1-3-4v-5z" fill="#504138"/>
<path transform="translate(736,1275)" d="m0 0 6 1 3 3v6l-4 4-7-1-2-3v-6z" fill="#504138"/>
</svg>
